<svg width="18" height="16" viewBox="0 0 18 16" fill="#12223" xmlns="http://www.w3.org/2000/svg">
<path d="M17.5 8C17.4939 8.65763 17.2289 9.28638 16.7625 9.75L11.4 15.125C11.1658 15.3578 10.849 15.4885 10.5188 15.4885C10.1885 15.4885 9.8717 15.3578 9.6375 15.125C9.52034 15.0088 9.42735 14.8705 9.36389 14.7182C9.30043 14.5659 9.26775 14.4025 9.26775 14.2375C9.26775 14.0725 9.30043 13.9091 9.36389 13.7568C9.42735 13.6045 9.52034 13.4662 9.6375 13.35L13.75 9.25H1.25C0.918479 9.25 0.600537 9.11831 0.366117 8.88389C0.131696 8.64947 0 8.33152 0 8C0 7.66848 0.131696 7.35054 0.366117 7.11612C0.600537 6.8817 0.918479 6.75 1.25 6.75H13.75L9.6375 2.6375C9.40212 2.40378 9.26923 2.08613 9.26806 1.75442C9.26688 1.42272 9.39753 1.10413 9.63125 0.868753C9.86497 0.633374 10.1826 0.50048 10.5143 0.499308C10.846 0.498135 11.1646 0.628782 11.4 0.862505L16.7625 6.2375C17.232 6.70419 17.4972 7.33803 17.5 8Z" fill="black"/>
</svg>
