<svg width="8" height="12" viewBox="0 0 8 12" fill="none" xmlns="http://www.w3.org/2000/svg">
<path d="M7.33333 0.333369C7.33333 0.244963 7.29821 0.160179 7.2357 0.0976668C7.17319 0.0351546 7.08841 3.56287e-05 7 3.56287e-05H5.33333C4.49408 -0.0417705 3.6724 0.250297 3.04781 0.812422C2.42323 1.37455 2.04652 2.16103 2 3.00004V4.80004H0.333333C0.244928 4.80004 0.160143 4.83516 0.0976311 4.89767C0.035119 4.96018 0 5.04496 0 5.13337V6.8667C0 6.95511 0.035119 7.03989 0.0976311 7.1024C0.160143 7.16492 0.244928 7.20004 0.333333 7.20004H2V11.6667C2 11.7551 2.03512 11.8399 2.09763 11.9024C2.16014 11.9649 2.24493 12 2.33333 12H4.33333C4.42174 12 4.50652 11.9649 4.56904 11.9024C4.63155 11.8399 4.66667 11.7551 4.66667 11.6667V7.20004H6.41333C6.48746 7.2011 6.55983 7.17742 6.61899 7.13275C6.67815 7.08808 6.72073 7.02496 6.74 6.95337L7.22 5.22004C7.23326 5.17078 7.23505 5.11914 7.22521 5.0691C7.21538 5.01905 7.19419 4.97192 7.16328 4.93135C7.13236 4.89078 7.09255 4.85784 7.04691 4.83507C7.00127 4.81231 6.95101 4.80032 6.9 4.80004H4.66667V3.00004C4.68325 2.83502 4.76074 2.68211 4.88402 2.57116C5.00729 2.46022 5.16749 2.3992 5.33333 2.40004H7C7.08841 2.40004 7.17319 2.36492 7.2357 2.3024C7.29821 2.23989 7.33333 2.15511 7.33333 2.0667V0.333369Z" fill="#1E48F3"/>
</svg>
