<svg width="251" height="38" viewBox="0 0 251 38" fill="none" xmlns="http://www.w3.org/2000/svg">
<path d="M49.66 26V12H52.34L58.3 21.88H56.88L62.74 12H65.4L65.44 26H62.4L62.38 16.66H62.94L58.26 24.52H56.8L52.02 16.66H52.7V26H49.66ZM75.2416 26V20.28L75.9816 22.24L69.8216 12H73.2616L77.9816 19.86H76.0016L80.7416 12H83.9216L77.7616 22.24L78.4816 20.28V26H75.2416ZM99.9213 17.64H106.661V20.16H99.9213V17.64ZM100.161 23.4H107.781V26H96.9413V12H107.521V14.6H100.161V23.4ZM111.623 26L117.643 17.7V20.06L111.883 12H115.563L119.543 17.62L118.003 17.64L121.923 12H125.443L119.723 19.92V17.6L125.783 26H122.043L117.923 20.06H119.403L115.343 26H111.623ZM130.051 26V12H136.111C137.364 12 138.444 12.2067 139.351 12.62C140.257 13.02 140.957 13.6 141.451 14.36C141.944 15.12 142.191 16.0267 142.191 17.08C142.191 18.12 141.944 19.02 141.451 19.78C140.957 20.54 140.257 21.1267 139.351 21.54C138.444 21.94 137.364 22.14 136.111 22.14H131.851L133.291 20.68V26H130.051ZM133.291 21.04L131.851 19.5H135.931C136.931 19.5 137.677 19.2867 138.171 18.86C138.664 18.4333 138.911 17.84 138.911 17.08C138.911 16.3067 138.664 15.7067 138.171 15.28C137.677 14.8533 136.931 14.64 135.931 14.64H131.851L133.291 13.1V21.04ZM150.484 17.64H157.224V20.16H150.484V17.64ZM150.724 23.4H158.344V26H147.504V12H158.084V14.6H150.724V23.4ZM163.922 26V12H170.282C171.802 12 173.142 12.2933 174.302 12.88C175.462 13.4533 176.368 14.26 177.022 15.3C177.675 16.34 178.002 17.5733 178.002 19C178.002 20.4133 177.675 21.6467 177.022 22.7C176.368 23.74 175.462 24.5533 174.302 25.14C173.142 25.7133 171.802 26 170.282 26H163.922ZM167.162 23.34H170.122C171.055 23.34 171.862 23.1667 172.542 22.82C173.235 22.46 173.768 21.9533 174.142 21.3C174.528 20.6467 174.722 19.88 174.722 19C174.722 18.1067 174.528 17.34 174.142 16.7C173.768 16.0467 173.235 15.5467 172.542 15.2C171.862 14.84 171.055 14.66 170.122 14.66H167.162V23.34ZM183.445 26V12H186.685V26H183.445ZM195.908 26V14.64H191.428V12H203.628V14.64H199.148V26H195.908ZM208.371 26V12H211.611V26H208.371ZM224.733 26.24C223.627 26.24 222.6 26.06 221.653 25.7C220.72 25.34 219.907 24.8333 219.213 24.18C218.533 23.5267 218 22.76 217.613 21.88C217.24 21 217.053 20.04 217.053 19C217.053 17.96 217.24 17 217.613 16.12C218 15.24 218.54 14.4733 219.233 13.82C219.927 13.1667 220.74 12.66 221.673 12.3C222.607 11.94 223.62 11.76 224.713 11.76C225.82 11.76 226.833 11.94 227.753 12.3C228.687 12.66 229.493 13.1667 230.173 13.82C230.867 14.4733 231.407 15.24 231.793 16.12C232.18 16.9867 232.373 17.9467 232.373 19C232.373 20.04 232.18 21.0067 231.793 21.9C231.407 22.78 230.867 23.5467 230.173 24.2C229.493 24.84 228.687 25.34 227.753 25.7C226.833 26.06 225.827 26.24 224.733 26.24ZM224.713 23.48C225.34 23.48 225.913 23.3733 226.433 23.16C226.967 22.9467 227.433 22.64 227.833 22.24C228.233 21.84 228.54 21.3667 228.753 20.82C228.98 20.2733 229.093 19.6667 229.093 19C229.093 18.3333 228.98 17.7267 228.753 17.18C228.54 16.6333 228.233 16.16 227.833 15.76C227.447 15.36 226.987 15.0533 226.453 14.84C225.92 14.6267 225.34 14.52 224.713 14.52C224.087 14.52 223.507 14.6267 222.973 14.84C222.453 15.0533 221.993 15.36 221.593 15.76C221.193 16.16 220.88 16.6333 220.653 17.18C220.44 17.7267 220.333 18.3333 220.333 19C220.333 19.6533 220.44 20.26 220.653 20.82C220.88 21.3667 221.187 21.84 221.573 22.24C221.973 22.64 222.44 22.9467 222.973 23.16C223.507 23.3733 224.087 23.48 224.713 23.48ZM237.808 26V12H240.488L248.748 22.08H247.448V12H250.648V26H247.988L239.708 15.92H241.008V26H237.808Z" fill="#12223F"/>
<path d="M15.75 29.3636H42V5.18182C42 3.80751 41.4469 2.4895 40.4623 1.51772C39.4777 0.54594 38.1424 0 36.75 0H21C19.6076 0 18.2723 0.54594 17.2877 1.51772C16.3031 2.4895 15.75 3.80751 15.75 5.18182V29.3636ZM12.25 29.3636H0V20.7273H12.25V29.3636ZM8.75 6.90909H12.25V17.2727H0V15.5455C0.00278091 13.2558 0.925545 11.0607 2.56589 9.44165C4.20623 7.82261 6.43021 6.91183 8.75 6.90909ZM36.6485 32.8182C36.7126 33.1018 36.7466 33.3912 36.75 33.6818C36.75 34.8271 36.2891 35.9254 35.4686 36.7352C34.6481 37.545 33.5353 38 32.375 38C31.2147 38 30.1019 37.545 29.2814 36.7352C28.4609 35.9254 28 34.8271 28 33.6818C28.0034 33.3912 28.0374 33.1018 28.1015 32.8182H36.6485ZM12.1485 32.8182C12.2126 33.1018 12.2466 33.3912 12.25 33.6818C12.25 34.8271 11.7891 35.9254 10.9686 36.7352C10.1481 37.545 9.03532 38 7.875 38C6.71468 38 5.60188 37.545 4.78141 36.7352C3.96094 35.9254 3.5 34.8271 3.5 33.6818C3.50338 33.3912 3.5374 33.1018 3.60151 32.8182H12.1485Z" fill="#1E48F3"/>
</svg>
